<svg width="167" height="167" viewBox="0 0 167 167" fill="none" xmlns="http://www.w3.org/2000/svg">
<g clip-path="url(#clip0_59_344)">
<path d="M23.3267 0.000305716C22.2216 0.000305716 21.1618 0.439293 20.3804 1.22069C19.599 2.0021 19.16 3.0619 19.16 4.16697V116.667H0V153.334H19.16V162.5C19.16 163.605 19.599 164.665 20.3804 165.447C21.1618 166.228 22.2216 166.667 23.3267 166.667H143.327C144.432 166.667 145.492 166.228 146.273 165.447C147.054 164.665 147.493 163.605 147.493 162.5V36.042C147.538 34.187 147.5 33.0803 146.273 31.7253L115.767 1.22031C115.374 0.827413 114.906 0.517077 114.392 0.30756C113.877 0.0980422 113.326 -0.00642491 112.77 0.000305716H23.3267ZM27.4933 8.33364H108.997L111.083 32.6136C111.167 33.5925 111.594 34.5104 112.289 35.2051C112.983 35.8998 113.901 36.3266 114.88 36.4103L139.16 38.497V158.334H27.4933V153.334H133.333V116.667H27.4933V8.33364ZM16.6667 121.667H23.675V132.767L37.8333 121.667H47.255L34.1883 131.404L47.965 146.667H38.8967L29.355 134.934L23.675 139.112V146.667H16.6667V121.667ZM51.5133 121.667H62.0017L68.3017 138.72L74.5267 121.667H85.0367V146.667H78.5267V126.985L71.6367 146.667H64.8933L58.0233 126.985V146.667H51.5133V121.667ZM92.2367 121.872H99.2417V142.455H116.667V146.667H92.2367V121.872Z" fill="#4285F4"/>
<path d="M117.952 15.1917L132.302 29.5417L119.088 28.405L117.952 15.1917Z" fill="#4285F4"/>
<path d="M83.3333 29.1783C73.3877 29.1783 63.8494 33.1292 56.8168 40.1618C49.7842 47.1944 45.8333 56.7327 45.8333 66.6783C45.8333 76.624 49.7842 86.1622 56.8168 93.1948C63.8494 100.227 73.3877 104.178 83.3333 104.178C93.279 104.178 102.817 100.227 109.85 93.1948C116.882 86.1622 120.833 76.624 120.833 66.6783C120.833 56.7327 116.882 47.1944 109.85 40.1618C102.817 33.1292 93.279 29.1783 83.3333 29.1783ZM82.5733 31.8317C99.0133 31.8317 112.873 42.8317 117.21 57.88C116.408 59.4217 115.387 60.43 114.088 60.5417C109.625 60.5417 103.622 49.0067 100.162 45.1333C94.9783 39.335 87.8517 33.8667 75.275 33.8667C73.0717 33.8667 71.235 33.9917 69.7017 34.2033C73.8112 32.6327 78.1739 31.8289 82.5733 31.8317ZM66.965 40.465C76.3317 40.465 83.16 47.6083 90.4967 54.72C95.1733 59.27 108.182 71.3417 118.527 73.61C118.239 75.5035 117.798 77.3707 117.21 79.1933C94.4283 76.5683 73.0067 50.7633 60.8283 50.7633C56.295 50.7633 51.9967 54.3917 48.2433 58.1467C50.0548 51.883 53.5309 46.2279 58.3017 41.7833C60.8433 41.0233 63.7683 40.4667 66.965 40.4667M55.245 77.5333C60.8617 77.5333 76.6533 88.8117 97.5733 88.8117C103.612 88.8117 109.41 87.2283 113.395 85.8083C111.738 88.2747 109.778 90.5233 107.562 92.5017C103.395 93.805 97.7233 95.085 91.57 95.085C78.0867 95.085 74.45 91.9433 70.795 91.9433C66.66 91.9433 67.3117 95.6233 68.395 98.4083C60.6929 94.8494 54.488 88.6946 50.8667 81.0217C51.63 79.1383 52.9517 77.5333 55.2533 77.5333" fill="#4285F4"/>
</g>
<defs>
<clipPath id="clip0_59_344">
<rect width="166.667" height="166.667" fill="white"/>
</clipPath>
</defs>
</svg>
