<svg width="250" height="250" viewBox="0 0 250 250" fill="none" xmlns="http://www.w3.org/2000/svg">
<rect width="250" height="250" rx="73" fill="white"/>
<g clip-path="url(#clip0_59_571)">
<path fill-rule="evenodd" clip-rule="evenodd" d="M185 90V155H175V90H155C151.022 90 147.206 88.4196 144.393 85.6066C141.58 82.7936 140 78.9782 140 75V55H85C82.3478 55 79.8043 56.0536 77.9289 57.9289C76.0536 59.8043 75 62.3478 75 65V155H65V65C65 59.6957 67.1071 54.6086 70.8579 50.8579C74.6086 47.1071 79.6957 45 85 45H140L185 90ZM123.6 193.41C123.657 194.986 124.044 196.532 124.734 197.949C125.425 199.367 126.404 200.624 127.61 201.64C128.91 202.72 130.507 203.56 132.4 204.16C134.293 204.767 136.51 205.07 139.05 205.07C142.43 205.07 145.29 204.543 147.63 203.49C149.997 202.437 151.797 200.97 153.03 199.09C154.291 197.138 154.942 194.854 154.9 192.53C154.9 190.29 154.45 188.423 153.55 186.93C152.635 185.431 151.342 184.2 149.8 183.36C148.034 182.379 146.129 181.671 144.15 181.26L137.94 179.82C136.476 179.542 135.092 178.941 133.89 178.06C133.436 177.707 133.07 177.253 132.821 176.734C132.573 176.215 132.449 175.645 132.46 175.07C132.46 173.51 133.073 172.23 134.3 171.23C135.553 170.217 137.263 169.71 139.43 169.71C140.857 169.71 142.09 169.937 143.13 170.39C144.089 170.773 144.933 171.396 145.58 172.2C146.195 172.942 146.609 173.831 146.78 174.78H154.28C154.154 172.745 153.465 170.786 152.29 169.12C151.03 167.322 149.3 165.903 147.29 165.02C144.836 163.939 142.171 163.419 139.49 163.5C136.557 163.5 133.967 164 131.72 165C129.48 165.993 127.723 167.397 126.45 169.21C125.183 171.03 124.55 173.16 124.55 175.6C124.55 177.613 124.96 179.36 125.78 180.84C126.6 182.32 127.77 183.543 129.29 184.51C130.817 185.463 132.617 186.173 134.69 186.64L140.87 188.08C142.937 188.567 144.477 189.21 145.49 190.01C145.988 190.39 146.387 190.885 146.654 191.453C146.92 192.02 147.046 192.644 147.02 193.27C147.043 194.301 146.746 195.314 146.17 196.17C145.526 197.048 144.64 197.718 143.62 198.1C142.5 198.567 141.123 198.8 139.49 198.8C138.317 198.8 137.25 198.667 136.29 198.4C135.4 198.163 134.558 197.774 133.8 197.25C133.135 196.818 132.566 196.255 132.127 195.594C131.689 194.934 131.39 194.19 131.25 193.41H123.6ZM86.34 164.32H95.27L82.53 184.39L95.07 204.31H85.99L77.49 190.16H77.14L68.61 204.31H60L72.4 184.15L60.12 164.32H69.43L77.75 178.7H78.11L86.34 164.32ZM105.57 197.57H122.54V204.31H97.66V164.32H105.57V197.57ZM181.93 164.32H190.86L178.12 184.39L190.66 204.31H181.58L173.08 190.16H172.73L164.2 204.31H155.59L167.99 184.15L155.71 164.32H165.02L173.34 178.7H173.7L181.93 164.32Z" fill="#4285F4"/>
</g>
<defs>
<clipPath id="clip0_59_571">
<rect width="160" height="160" fill="white" transform="translate(45 45)"/>
</clipPath>
</defs>
</svg>
